<mxfile host="app.diagrams.net" modified="2023-03-02T10:28:57.187Z" agent="5.0 (Macintosh; Intel Mac OS X 10_15_7) AppleWebKit/537.36 (KHTML, like Gecko) Chrome/110.0.0.0 Safari/537.36" etag="DO_PDXgUuALLD4-41aTW" version="20.8.23" type="github">
  <diagram name="data_structure" id="0lBOWSRzW262vy09HFQD">
    <mxGraphModel dx="1034" dy="1077" grid="1" gridSize="10" guides="1" tooltips="1" connect="1" arrows="1" fold="1" page="1" pageScale="1" pageWidth="1169" pageHeight="827" math="0" shadow="0">
      <root>
        <mxCell id="0" />
        <mxCell id="1" parent="0" />
        <mxCell id="mqQwdSMC6Uva1PnvW4H1-1" value="&lt;b&gt;kevent(fd)&lt;/b&gt;" style="swimlane;fontStyle=0;childLayout=stackLayout;horizontal=1;startSize=30;horizontalStack=0;resizeParent=1;resizeParentMax=0;resizeLast=0;collapsible=1;marginBottom=0;whiteSpace=wrap;html=1;" parent="1" vertex="1">
          <mxGeometry x="440" y="40" width="330" height="210" as="geometry" />
        </mxCell>
        <mxCell id="mqQwdSMC6Uva1PnvW4H1-2" value="&lt;font style=&quot;font-size: 14px;&quot;&gt;- ident : fd&lt;br&gt;- filter : READ, WRITE, VNODE, TIMER&lt;br&gt;- flags :&amp;nbsp;&lt;br&gt;- fflags :&amp;nbsp;&lt;br&gt;- data : READ 일 때, 길이 반환&lt;br&gt;- udata : 사용자 데이터&lt;br&gt;&lt;/font&gt;" style="text;strokeColor=none;fillColor=none;align=left;verticalAlign=middle;spacingLeft=4;spacingRight=4;overflow=hidden;points=[[0,0.5],[1,0.5]];portConstraint=eastwest;rotatable=0;whiteSpace=wrap;html=1;" parent="mqQwdSMC6Uva1PnvW4H1-1" vertex="1">
          <mxGeometry y="30" width="330" height="180" as="geometry" />
        </mxCell>
        <mxCell id="mqQwdSMC6Uva1PnvW4H1-6" value="&lt;b&gt;class ServerConfig&lt;/b&gt;" style="swimlane;fontStyle=0;childLayout=stackLayout;horizontal=1;startSize=30;horizontalStack=0;resizeParent=1;resizeParentMax=0;resizeLast=0;collapsible=1;marginBottom=0;whiteSpace=wrap;html=1;" parent="1" vertex="1">
          <mxGeometry x="40" y="760" width="330" height="210" as="geometry" />
        </mxCell>
        <mxCell id="mqQwdSMC6Uva1PnvW4H1-7" value="&lt;font style=&quot;font-size: 14px;&quot;&gt;- vector&amp;lt;t_server * &amp;gt; server_list_;&lt;br&gt;- int * server_socket_;&lt;br&gt;- struct sock_addr_in * server_addr_;&lt;br&gt;- int64_t server_number;&amp;nbsp;&lt;br&gt;- int kq;&amp;nbsp;&lt;br&gt;&lt;/font&gt;" style="text;strokeColor=none;fillColor=none;align=left;verticalAlign=middle;spacingLeft=4;spacingRight=4;overflow=hidden;points=[[0,0.5],[1,0.5]];portConstraint=eastwest;rotatable=0;whiteSpace=wrap;html=1;" parent="mqQwdSMC6Uva1PnvW4H1-6" vertex="1">
          <mxGeometry y="30" width="330" height="180" as="geometry" />
        </mxCell>
        <mxCell id="mqQwdSMC6Uva1PnvW4H1-8" value="&lt;b&gt;typedef struct t_server&lt;/b&gt;" style="swimlane;fontStyle=0;childLayout=stackLayout;horizontal=1;startSize=30;horizontalStack=0;resizeParent=1;resizeParentMax=0;resizeLast=0;collapsible=1;marginBottom=0;whiteSpace=wrap;html=1;" parent="1" vertex="1">
          <mxGeometry x="40" y="520" width="330" height="210" as="geometry" />
        </mxCell>
        <mxCell id="mqQwdSMC6Uva1PnvW4H1-9" value="&lt;font style=&quot;font-size: 14px;&quot;&gt;- std::string port_;&lt;br&gt;- config_map main _config_;&lt;br&gt;- std::map&amp;lt;std::string, t_loc*&amp;gt; location_configs_;&lt;br&gt;- int server_fd_;&lt;br&gt;- e_autoindex index_mode_;&lt;br&gt;&lt;/font&gt;" style="text;strokeColor=none;fillColor=none;align=left;verticalAlign=middle;spacingLeft=4;spacingRight=4;overflow=hidden;points=[[0,0.5],[1,0.5]];portConstraint=eastwest;rotatable=0;whiteSpace=wrap;html=1;" parent="mqQwdSMC6Uva1PnvW4H1-8" vertex="1">
          <mxGeometry y="30" width="330" height="180" as="geometry" />
        </mxCell>
        <mxCell id="mqQwdSMC6Uva1PnvW4H1-10" value="&lt;b&gt;typedef struct t_loc&lt;/b&gt;" style="swimlane;fontStyle=0;childLayout=stackLayout;horizontal=1;startSize=30;horizontalStack=0;resizeParent=1;resizeParentMax=0;resizeLast=0;collapsible=1;marginBottom=0;whiteSpace=wrap;html=1;" parent="1" vertex="1">
          <mxGeometry x="40" y="280" width="330" height="210" as="geometry" />
        </mxCell>
        <mxCell id="mqQwdSMC6Uva1PnvW4H1-11" value="&lt;font style=&quot;font-size: 14px;&quot;&gt;- std::string location_;&lt;br&gt;- config_map main_cofing_;&lt;br&gt;- e_type loc_type_[3];&amp;nbsp;&lt;br&gt;- e_autoindex index_mode_;&lt;br&gt;&lt;/font&gt;" style="text;strokeColor=none;fillColor=none;align=left;verticalAlign=middle;spacingLeft=4;spacingRight=4;overflow=hidden;points=[[0,0.5],[1,0.5]];portConstraint=eastwest;rotatable=0;whiteSpace=wrap;html=1;" parent="mqQwdSMC6Uva1PnvW4H1-10" vertex="1">
          <mxGeometry y="30" width="330" height="180" as="geometry" />
        </mxCell>
        <mxCell id="mqQwdSMC6Uva1PnvW4H1-13" value="&lt;h1&gt;typedef - config_map&lt;/h1&gt;&lt;div&gt;std::map&amp;lt;std::string, std::string&amp;gt;&amp;nbsp; &amp;nbsp;: 키를 가지고 설정 값을 찾아내는 type&lt;/div&gt;" style="text;html=1;strokeColor=none;fillColor=none;spacing=5;spacingTop=-20;whiteSpace=wrap;overflow=hidden;rounded=0;fontSize=14;" parent="1" vertex="1">
          <mxGeometry x="40" y="40" width="330" height="90" as="geometry" />
        </mxCell>
        <mxCell id="mqQwdSMC6Uva1PnvW4H1-14" value="&lt;h1&gt;typedef - location_list&lt;/h1&gt;&lt;div&gt;std::map&amp;lt;std::string, t_loc * &amp;gt; : location 리스트 전체를 관리하는 type&lt;/div&gt;" style="text;html=1;strokeColor=none;fillColor=none;spacing=5;spacingTop=-20;whiteSpace=wrap;overflow=hidden;rounded=0;fontSize=14;" parent="1" vertex="1">
          <mxGeometry x="40" y="140" width="330" height="90" as="geometry" />
        </mxCell>
        <mxCell id="mqQwdSMC6Uva1PnvW4H1-16" value="&lt;b&gt;typedef struct t_html&lt;/b&gt;" style="swimlane;fontStyle=0;childLayout=stackLayout;horizontal=1;startSize=30;horizontalStack=0;resizeParent=1;resizeParentMax=0;resizeLast=0;collapsible=1;marginBottom=0;whiteSpace=wrap;html=1;" parent="1" vertex="1">
          <mxGeometry x="440" y="320" width="330" height="210" as="geometry" />
        </mxCell>
        <mxCell id="mqQwdSMC6Uva1PnvW4H1-17" value="&lt;font style=&quot;font-size: 14px;&quot;&gt;- typedef std::map&amp;lt;std::string, std::string&amp;gt; htrml_line;&lt;br&gt;- html_line init_line_;&lt;br&gt;- html_line header_;&lt;br&gt;- size_t entity_length_;&lt;br&gt;- char* entity;&lt;br&gt;&lt;/font&gt;" style="text;strokeColor=none;fillColor=none;align=left;verticalAlign=middle;spacingLeft=4;spacingRight=4;overflow=hidden;points=[[0,0.5],[1,0.5]];portConstraint=eastwest;rotatable=0;whiteSpace=wrap;html=1;" parent="mqQwdSMC6Uva1PnvW4H1-16" vertex="1">
          <mxGeometry y="30" width="330" height="180" as="geometry" />
        </mxCell>
        <mxCell id="mqQwdSMC6Uva1PnvW4H1-18" value="&lt;b&gt;class&amp;nbsp; s_base_type&lt;/b&gt;" style="swimlane;fontStyle=0;childLayout=stackLayout;horizontal=1;startSize=30;horizontalStack=0;resizeParent=1;resizeParentMax=0;resizeLast=0;collapsible=1;marginBottom=0;whiteSpace=wrap;html=1;" parent="1" vertex="1">
          <mxGeometry x="880" y="40" width="330" height="90" as="geometry" />
        </mxCell>
        <mxCell id="mqQwdSMC6Uva1PnvW4H1-19" value="&lt;font style=&quot;font-size: 14px;&quot;&gt;- t_s_type type_;&lt;br&gt;- int fd_;&lt;br&gt;&lt;/font&gt;" style="text;strokeColor=none;fillColor=none;align=left;verticalAlign=middle;spacingLeft=4;spacingRight=4;overflow=hidden;points=[[0,0.5],[1,0.5]];portConstraint=eastwest;rotatable=0;whiteSpace=wrap;html=1;" parent="mqQwdSMC6Uva1PnvW4H1-18" vertex="1">
          <mxGeometry y="30" width="330" height="60" as="geometry" />
        </mxCell>
        <mxCell id="mqQwdSMC6Uva1PnvW4H1-20" value="&lt;b&gt;class s_server_type : public s_base_type&lt;/b&gt;" style="swimlane;fontStyle=0;childLayout=stackLayout;horizontal=1;startSize=30;horizontalStack=0;resizeParent=1;resizeParentMax=0;resizeLast=0;collapsible=1;marginBottom=0;whiteSpace=wrap;html=1;" parent="1" vertex="1">
          <mxGeometry x="880" y="150" width="330" height="70" as="geometry" />
        </mxCell>
        <mxCell id="mqQwdSMC6Uva1PnvW4H1-21" value="&lt;font style=&quot;font-size: 14px;&quot;&gt;- t_server* serlf_config&lt;br&gt;&lt;/font&gt;" style="text;strokeColor=none;fillColor=none;align=left;verticalAlign=middle;spacingLeft=4;spacingRight=4;overflow=hidden;points=[[0,0.5],[1,0.5]];portConstraint=eastwest;rotatable=0;whiteSpace=wrap;html=1;" parent="mqQwdSMC6Uva1PnvW4H1-20" vertex="1">
          <mxGeometry y="30" width="330" height="40" as="geometry" />
        </mxCell>
        <mxCell id="mqQwdSMC6Uva1PnvW4H1-22" value="&lt;b&gt;class s_client_type : public s_base_type&lt;/b&gt;" style="swimlane;fontStyle=0;childLayout=stackLayout;horizontal=1;startSize=30;horizontalStack=0;resizeParent=1;resizeParentMax=0;resizeLast=0;collapsible=1;marginBottom=0;whiteSpace=wrap;html=1;" parent="1" vertex="1">
          <mxGeometry x="880" y="240" width="330" height="220" as="geometry" />
        </mxCell>
        <mxCell id="mqQwdSMC6Uva1PnvW4H1-23" value="&lt;font style=&quot;font-size: 14px;&quot;&gt;- int cookie_id_; 계정용, 세션용&amp;nbsp;&lt;br&gt;- t_server* config_ptr_;&lt;br&gt;- t_html request_msg_;&lt;br&gt;- t_html response_msg_;&lt;br&gt;&lt;br&gt;- s_base_type* parent_ptr_;&lt;br&gt;- s_base_type* data_ptr_;&lt;br&gt;&lt;br&gt;- t_stage stage_;&lt;br&gt;- t_error http_status_code_;&lt;br&gt;&lt;/font&gt;" style="text;strokeColor=none;fillColor=none;align=left;verticalAlign=middle;spacingLeft=4;spacingRight=4;overflow=hidden;points=[[0,0.5],[1,0.5]];portConstraint=eastwest;rotatable=0;whiteSpace=wrap;html=1;" parent="mqQwdSMC6Uva1PnvW4H1-22" vertex="1">
          <mxGeometry y="30" width="330" height="190" as="geometry" />
        </mxCell>
        <mxCell id="mqQwdSMC6Uva1PnvW4H1-25" value="모든 getter, config 접근은 해당 datas 파트에서 진행한다.&amp;nbsp;" style="text;html=1;strokeColor=none;fillColor=none;align=center;verticalAlign=middle;whiteSpace=wrap;rounded=0;fontSize=14;" parent="1" vertex="1">
          <mxGeometry x="870" y="790" width="330" height="60" as="geometry" />
        </mxCell>
        <mxCell id="vwRwGf5bAn1xfcTuyr_X-1" value="&lt;b&gt;class s_work_type : public s_base_type&lt;/b&gt;" style="swimlane;fontStyle=0;childLayout=stackLayout;horizontal=1;startSize=30;horizontalStack=0;resizeParent=1;resizeParentMax=0;resizeLast=0;collapsible=1;marginBottom=0;whiteSpace=wrap;html=1;" vertex="1" parent="1">
          <mxGeometry x="880" y="480" width="330" height="110" as="geometry" />
        </mxCell>
        <mxCell id="vwRwGf5bAn1xfcTuyr_X-2" value="&lt;font style=&quot;font-size: 14px;&quot;&gt;- const std::string uri_;&lt;br&gt;- s_base_type* client_ptr_;&lt;br&gt;- s_chore work_type_;&lt;br&gt;&lt;/font&gt;" style="text;strokeColor=none;fillColor=none;align=left;verticalAlign=middle;spacingLeft=4;spacingRight=4;overflow=hidden;points=[[0,0.5],[1,0.5]];portConstraint=eastwest;rotatable=0;whiteSpace=wrap;html=1;" vertex="1" parent="vwRwGf5bAn1xfcTuyr_X-1">
          <mxGeometry y="30" width="330" height="80" as="geometry" />
        </mxCell>
        <mxCell id="vwRwGf5bAn1xfcTuyr_X-3" value="&lt;h1&gt;typedef - s_event_type : t_event&lt;/h1&gt;&lt;div&gt;client 의 진행 상황을 기재하기 위한 용도&lt;/div&gt;" style="text;html=1;strokeColor=none;fillColor=none;spacing=5;spacingTop=-20;whiteSpace=wrap;overflow=hidden;rounded=0;fontSize=14;" vertex="1" parent="1">
          <mxGeometry x="440" y="560" width="330" height="120" as="geometry" />
        </mxCell>
        <mxCell id="vwRwGf5bAn1xfcTuyr_X-4" value="&lt;h1&gt;typedef - s_error : t_error&lt;/h1&gt;&lt;div&gt;client 의 진행 상황에서 처리시 발생한 문제들을 확인하는 용도, 본 값을 통해 에러 상황을 판단하고 검사한다&lt;/div&gt;" style="text;html=1;strokeColor=none;fillColor=none;spacing=5;spacingTop=-20;whiteSpace=wrap;overflow=hidden;rounded=0;fontSize=14;" vertex="1" parent="1">
          <mxGeometry x="440" y="690" width="330" height="140" as="geometry" />
        </mxCell>
        <mxCell id="vwRwGf5bAn1xfcTuyr_X-5" value="&lt;h1&gt;typedef - s_chore : t_chore&lt;/h1&gt;&lt;div&gt;client 에서 할당한 작업의 종류를 구분하는 용도&lt;/div&gt;" style="text;html=1;strokeColor=none;fillColor=none;spacing=5;spacingTop=-20;whiteSpace=wrap;overflow=hidden;rounded=0;fontSize=14;" vertex="1" parent="1">
          <mxGeometry x="440" y="830" width="330" height="130" as="geometry" />
        </mxCell>
      </root>
    </mxGraphModel>
  </diagram>
</mxfile>
